<?xml version="1.0" encoding="utf-8"?>
<!-- Generator: Adobe Illustrator 21.0.2, SVG Export Plug-In . SVG Version: 6.00 Build 0)  -->
<svg version="1.1" id="Layer_1" xmlns="http://www.w3.org/2000/svg" xmlns:xlink="http://www.w3.org/1999/xlink" x="0px" y="0px"
	 viewBox="0 0 215 32" style="enable-background:new 0 0 215 32;" xml:space="preserve">
<style type="text/css">
	.st0{fill:#FFFFFF;}
</style>
<g>
	<g>
		<path class="st0" d="M212.4,27.5v0.3h-0.7v2h-0.4v-2h-0.7v-0.3H212.4z M214.6,29.9l-0.1-1.4c0-0.2,0-0.4,0-0.6h0
			c-0.1,0.2-0.1,0.5-0.2,0.7l-0.5,1.4h-0.3l-0.5-1.4c-0.1-0.2-0.1-0.4-0.2-0.6h0c0,0.2,0,0.4,0,0.6l-0.1,1.4h-0.3l0.2-2.3h0.5
			l0.5,1.3c0.1,0.2,0.1,0.4,0.2,0.6h0c0.1-0.2,0.1-0.4,0.2-0.6l0.5-1.3h0.5l0.2,2.3H214.6z"/>
	</g>
	<g>
		<path class="st0" d="M16.9,4.1c-1,0.6-2,1.3-3,2.1c-1.7,1.3-3.2,2.8-4.7,4.3c-0.6,0.6-1.5,1.6-1.5,1.6c-0.7,0.9-1.2,1.5-1.5,1.9
			c-1.2,0-2.4,0-3.5-0.3c-1.2-0.4-2.1-1.3-1.9-2.7c0.2-1.5,1.2-2.7,2.3-3.6C6.2,5,10.4,3.8,14,3.3c1-0.2,2.1-0.3,3.1-0.3
			c0.8-0.1,1.7,0,2.4-0.3c-1.5-0.2-3-0.1-4.5,0.1c-2.5,0.2-5,0.6-7.4,1.3C5.4,4.7,3,5.8,1.5,7.6c-1.3,1.5-2.4,4.6-0.3,5.9
			c1.3,0.9,3.2,1,4.7,1.2c-1.8,3.5-4,6.8-3.9,10.9c0,1.4,0.3,2.9,1.4,3.8c1.1,1,2.8,1.2,4.3,1c1.8-0.2,3.3-1,4.7-2.1
			c1.6-1.3,3.1-2.8,4.3-4.5c1.5-2.1,4.3-7.8-0.5-7.8c-2.8,0-5.1,2.8-6.5,5c-0.7,1.1-1.3,2.3-1.7,3.6c-0.1,0.4-0.2,0.9-0.2,1.3
			c0,0.3,0.1,0.5,0.3,0.7c0.1,0.1,0.3,0.2,0.5,0.3c-0.5-2.4,2.4-6.7,4.9-8.8c0.9-0.7,2.1-1.6,3.3-1.4c2.3,0.4,1,2.9,0.4,4.2
			c-0.8,1.7-2,3.1-3.2,4.5c-1.2,1.4-2.6,2.7-4.2,3.6c-1.2,0.6-3.5,1.4-4.6,0.2c-0.9-0.9-0.6-2.6-0.2-3.7c0.4-1.3,1-2.5,1.6-3.7
			c0.9-1.8,1.7-3.5,2.6-5.3c0.2-0.4,0.5-0.9,0.7-1.3c0.1-0.2,0.2-0.4,0.3-0.6c0.2-0.4,0.4-0.3,0.7-0.3c1.1-0.3,2.2-0.6,3.2-0.9
			c1.5-0.5,2.9-1,4.4-1.6c3.5-1.3,7.2-3.2,9.9-5.9c1-1,2.9-3,2.4-4.6C30.3-0.1,28-0.1,26.8,0c-4.1,0.4-6.7,2.2-7.3,2.5 M29.7,2.9
			c-0.8,1.5-2.4,2.7-3.8,3.7c-1.4,1-2.9,2-4.4,2.8c-3.2,1.8-7,3.7-10.7,4.1c2.9-4.4,6.7-9.2,11.5-11.7c1.3-0.7,2.7-1.1,4.1-1.2
			C27.9,0.5,31.2,0.6,29.7,2.9"/>
		<path class="st0" d="M211.6,22.4c-1.2,1.6-2.5,2.8-4,4.2c-0.8,0.7-1.6,1.4-2.5,1.9c-0.1,0.1-0.9,0.5-0.9,0.2
			c-0.1-0.4,0.3-1,0.5-1.3c0.5-0.9,1-1.8,1.5-2.6c0.4-0.7,1-1.5,1-2.3c0.1-0.9-0.6-1.4-1.4-1.6c-0.6-0.2-1.3-0.1-2-0.1
			c-0.6,0,0.1-0.4,0.3-0.6c0.6-0.6,1.2-1.1,1.8-1.7c0.4-0.4,0.9-0.7,1.4-1c0.4-0.3,0.7-0.2,0.3,0.3c-0.4,0.5-0.9,1-0.7,1.6
			c0.2,0.6,1.3,0.7,1.8,0.4c1.1-0.6,2-1.2,2.3-2.5c0.6-1.8-1.7-1.5-2.7-1c-1.9,1-3.4,2.5-5.2,3.8c-0.1,0.1-0.6,0.5-0.7,0.4
			c-0.2-0.1,0.3-0.9,0.3-1c0.4-0.9,0.9-1.9,1.5-2.8c1-1.4,1.7-3.1,2.6-4.6c0.6-1.1,1.2-2.1,1.7-3.2c0.2-0.4,0.7-1.1,0.8-1.5
			c0-0.3,0.8-0.4,0-0.5c-0.6-0.1-1.2-0.1-1.9-0.1c-0.5,0-1,0-1.5,0c-0.1,0-0.1,0.6-0.2,0.8c-1,2-2,4-3,5.9c-1.2,2.4-3.2,4.2-5,6.1
			c-0.8,0.8-1.7,1.7-2.7,2.3c-0.1,0-1.1,0.4-1.1,0.1c0-0.3,0.5-0.8,0.7-1c0.7-0.8,1.6-1.6,2.2-2.5c0.3-0.4,1.6-2.9,0.3-2.7
			c-0.8,0.1-1.7,1-2.1,1.6c-0.6,0.8-1.3,1.6-1.8,2.5c-0.3,0.6-0.6,1.2-0.5,1.9c0.1,0.4-0.5,0.9-0.8,1.3c-0.6,0.8-1.4,1.5-2.2,2.2
			c-0.1,0-0.7,0.6-0.8,0.5c-0.1-0.4,0.4-1,0.6-1.3c0.4-0.8,0.8-1.5,1.2-2.3c0.5-1.1,0.9-2.2,0.9-3.5c0-0.6-0.1-1.5-0.6-1.9
			c-0.6-0.5-1.7-0.1-2.2,0.3c-0.4,0.4-3.6,4.1-4.1,3.8c-0.4-0.3,0.5-2.5,0.4-3.1c0-0.6-0.2-1.3-0.7-1.7c-0.7-0.4-1.7-0.2-2.4,0.1
			c-2,0.7-3.8,2.1-5.3,3.5c-1,0.8-2.1,2.5-3.5,2.4c-0.8,0,0.9-2.6,1-2.9c0.2-0.3,0.4-0.6,0.5-1c0.2-0.5,0.3-1.7-0.6-1.2
			c-0.5,0.2-0.8,0.7-1.1,1.1c-0.6,0.8-1.1,1.6-1.7,2.5c-0.4,0.6-0.4,1.4,0,2c0.1,0.2-0.5,0.9-0.6,1.1c-0.6,1-1.2,1.9-2,2.7
			c-0.6,0.7-1.2,1.4-1.9,2.1c-0.4,0.4-1,1-1.7,0.9c-0.6,0-0.3-0.9-0.2-1.2c0.6-2,1.9-3.9,2.9-5.7c1-1.7,2-3.3,2.9-5
			c0.1-0.3,0.3-0.5,0.4-0.8c-1,0-1.9,0-2.9,0c-0.1,0-0.6-0.1-0.6,0c-0.2,0.3-0.4,0.6-0.5,0.9c-1,1.7-1.9,3.5-3.1,5.1
			c-1.3,1.8-2.6,3.7-4.2,5.2c-0.2,0.2-2.2,1.9-1.9,0.8c0.3-1.1,1-2.1,1.5-3.1c1.7-3,3.3-6,5-9c-1,0-1.9-0.1-2.9-0.1
			c-0.7,0-1.1,1.1-1.4,1.6c-1.2,1.7-2.4,3.4-3.7,5.1c-1,1.4-2.1,3-3.4,4.2c-0.8,0.7-1.7,1.7-2.7,2.1c-0.8,0.3,0.4-1.9,0.5-2.2
			c3.4-6.4,7-12.6,10.5-18.9c0.1-0.2,0.3-0.5,0.4-0.7c0.1-0.2,0.7-0.6,0.5-0.6c-1-0.2-2.2-0.1-3.2-0.1c-0.2,0-0.3,0-0.5,0
			c-0.2,0,0,0.2,0,0.3c0,0.3-0.3,0.6-0.4,0.8c-0.2,0.4-0.5,0.9-0.7,1.3c-1.1,2-2.1,4.1-3.3,6.1c-0.3,0.5-0.6,1.1-0.9,1.6
			c-0.4,0.7-0.7-0.3-1-0.5c-1.2-0.9-3-0.3-4.1,0.4c-1.9,1.1-3.5,2.4-4.9,4c-0.7,0.8-1.4,1.6-2.4,2.1c-0.3,0.1-0.8,0.3-1.1,0.2
			c-0.3-0.2,0-0.7,0.1-0.9c0.3-0.6,0.6-1.3,0.9-1.9c0.5-1.5,0.7-3.8-1.3-4.2c-1.3-0.2-2.6,0.5-3.7,1.1c-1.9,1-3.4,2.5-4.7,4.1
			c-0.3,0.4-3.4,2.2-3.4,1.3c0-0.6,0.6-1.4,0.9-1.9c0.4-0.7,0.7-1.5,0.7-2.4c0-1.6-0.9-2.6-2.5-2.5c-1,0.1-1.9,0.5-2.8,0.9
			c-1.6,0.8-3,1.9-4.2,3.2c-0.9,1-1.8,1.9-2.9,2.8c-0.4,0.4-3.2,2.1-3,2.5c1.4-0.9,2.9-1.8,4.3-2.7c-0.6,1.5-1.2,3.7-0.7,5.3
			c0.9,2.7,3.9,1.7,5.5,0.3c1.3-1.1,2.3-2.5,3.4-3.9c0.1-0.2,0.3-0.4,0.4-0.6c0.4-0.4,0.5-0.2,1-0.3c1-0.1,1.8-0.6,2.6-1.1
			c-0.5,1.7-1.1,3.4-0.9,5.2c0.1,1.2,0.9,2.4,2.2,2.5c1.1,0.1,2.1-0.4,3-1c1.4-1.1,2.5-2.6,3.6-4c0.2-0.3,0.4-0.6,0.7-0.9
			c0.3-0.4,0.3-0.4,0.8-0.3c1,0.1,2-0.6,2.9-1c-0.6,2-2.3,5.3,0.1,6.9c1.2,0.8,3-0.3,3.9-1.2c0.4-0.4,0.9-0.8,1.4-1.2
			c0.2-0.2,0.4-0.4,0.6-0.6c0.2-0.2,0.2,0.2,0.2,0.4c0.1,0.7,0.1,1.5,0.5,2.1c0.5,0.6,1.2,0.6,1.9,0.2c0.8-0.6,1.5-1.2,2.3-1.9
			c1.2-1.1,2.3-2.4,3.4-3.6c0,0,0,0,0,0c-0.4,1.5-1.9,6.5,1.4,5.7c1.5-0.4,2.7-2.1,3.7-3.2c0.5-0.6,1.1-1.1,1.6-1.7
			c-0.1,1.1-0.7,3.8,0.4,4.5c2,1.2,4.1-1.3,5.4-2.6c1-1,1.8-2.4,2.5-3.6c0.1-0.2,0.3-0.6,0.4-0.7c0.2-0.2,0.9-0.1,1.2-0.1
			c0.8-0.1,1.5-0.5,2.2-1c-0.7,1.8-1.7,3.8-1.7,5.7c-0.1,1.8,1.3,3.5,3.2,2.8c1.1-0.4,2-1.2,2.8-2c1.5-1.7,2.7-3.5,4.4-5
			c1.5-1.4,2.6-3,3.9-4.5c0.1-0.2,1.7-1.7,1.7-0.9c0,0.7-0.5,1.4-0.9,2.1c-0.6,1.1-1.2,2.2-1.8,3.3c-1.3,2.4-2.6,4.8-3.8,7.1
			c1,0,1.9,0.1,2.9,0.1c0.7,0,1.1-1,1.5-1.5c1.2-1.6,2.5-2.9,3.9-4.3c0.4-0.4,1-1.4,1.7-1.4c0.7-0.1,1.4-0.1,2-0.3
			c0.7-0.3,1.3-0.9,1.8-1.4c0.8-0.7,1.5-1.6,2.3-2.3c0.6-0.6,0.4,0,0.2,0.4c-1.7,3.7-3.8,7.2-5.8,10.7c0.6,0,1.2,0.1,1.7,0.1
			c0.2,0,1.2,0.2,1.3,0c0.6-1.1,1.3-2.2,1.9-3.2c0.7-1.3,1.5-2.6,2.3-3.9c0.3-0.5,0.5-0.6,1-0.8c0.4-0.1,0.7-0.2,1-0.5
			c0.4-0.3,0.9-0.2,1.4-0.2c-0.8,1.6-1.6,3.2-2.3,4.9c-0.4,0.9-0.8,1.7-0.3,2.7c0.7,1.4,2.4,0.7,3.4,0.1c3.4-2,5.6-5.3,8-8.3
			c-0.3,0.3-0.6,0.5-0.8,0.8C212.2,21.7,212,22,211.6,22.4 M126.2,20.6c-0.3,0.6-0.4,1.4-0.3,2.1c0.1,0.7,0.2,0.7-0.2,1.3
			c-0.6,0.9-1.3,1.7-1.9,2.5c-0.8,1-1.6,2-2.8,2.5c-0.5,0.2-1.6,0.5-1.9-0.2c-0.2-0.6,0.3-1.4,0.6-1.9c1.2-1.8,2.1-3.7,3.2-5.6
			c0.5-0.8,1.2-1.6,1.8-2.3c0.7-0.8,1.5-1.9,2.5-2.2c1.1-0.3,1.8,1,1.1,1.8C127.7,19.2,126.7,19.7,126.2,20.6 M138.2,20.9
			c-0.3,0.6-0.4,1.5-0.3,2.1c0.1,0.6,0.2,0.7-0.1,1.3c-0.6,0.9-1.2,1.7-1.9,2.5c-0.8,1-1.5,2-2.7,2.5c-0.5,0.2-1.6,0.5-1.9-0.2
			c-0.2-0.6,0.2-1.4,0.6-1.9c1.1-1.8,2-3.8,3-5.7c0.5-0.9,1.1-1.6,1.7-2.4c0.6-0.8,1.4-1.9,2.5-2.3c1.1-0.3,1.8,1,1.1,1.8
			C139.7,19.5,138.7,20,138.2,20.9 M147.9,26.4c-0.3,0.5-0.9,0.9-1.3,1.3c-0.4,0.4-0.8,0.8-1.3,1.2c-0.4,0.3-1.4,0.9-1.9,0.4
			c-0.4-0.5,0.1-1.4,0.3-1.8c1-1.9,2.1-3.9,3.1-5.8c0.4-0.8,1-1.5,1.5-2.2c0.7-0.9,1.3-1.9,2.4-2.4c0.7-0.3,1.6,0,1.8,0.8
			c0.1,0.5-0.1,1-0.4,1.5c-0.6,1.3-1.3,2.5-1.9,3.8C149.6,24.5,148.6,25.3,147.9,26.4 M184.6,18.4c-0.6,1-1.9,1.5-2.2,2.6
			c-0.2,0.7-0.3,1.6,0.1,2.2c0.2,0.2-0.5,1-0.6,1.1c-0.6,0.8-1.2,1.7-1.9,2.5c-0.8,1-1.6,2-2.8,2.4c-0.6,0.2-1.4,0.1-1.4-0.7
			c0-0.6,0.3-1.2,0.6-1.8c0.6-1,1.1-2,1.6-2.9c1-1.9,2-3.6,3.3-5.3c0.5-0.7,1.1-1.5,1.9-2C184.4,15.8,185.3,17.4,184.6,18.4"/>
		<path class="st0" d="M90.9,23.7c0.5-0.8,1-1.6,1.5-2.5c-1,1-1.8,2.4-2.7,3.5c-1.4,1.6-2.9,3-4.7,4.1c-0.5,0.3-1.2,0.7-1.8,0.7
			c-0.7,0,0.3-2,0.5-2.3c0.5-0.9,1.1-1.9,1.6-2.8c1.9-3.4,3.7-6.7,5.6-10.1c0,0,0,0,0,0l0.3-0.5L95,7.1l-3.4,0.1l-3.6,6.3
			c-0.9-0.1-1.7-0.4-2.1-1.3c-0.3-0.8,0-1.5,0.4-2.2c0.8-1.4,2-2.3,3.3-3.2c1.1-0.7,2.3-1.4,3.4-2c1-0.6,2.2-0.9,3.3-1.3
			c1.2-0.4,2.3-0.7,3.6-0.9c1.4-0.2,3.4,0.1,4.5,0.9c1.3,1,1.8,2.6,2,4.1c0,0.1-0.9,0.6-1,0.7c-0.6,0.4-1.2,0.8-1.9,1.2
			c-1.9,1.2-4,2.1-6.1,2.9c-1.3,0.5-2.6,0.8-3.9,1c-0.5,0.1-1,0.1-1.5,0.1c-0.7,0-0.7,0-1,0.6c3.1,0,6.1-0.5,9-2
			c2.2-1.1,4.4-2.4,6.4-3.8c-0.2,1.7-0.3,3.5-0.8,5.2c-0.6,2.1-1.2,4.3-2,6.4c-1.6,4-3.8,7.7-6.1,11.3c2.5-0.9,4.2-2.5,5.8-4.5
			c1.3-1.6,2.6-3.3,3.7-5c2.2-3.5,4.1-7.2,6.2-10.8c0.9-1.6,1.9-3.1,3.1-4.5c-0.7,1.6-1.5,3.2-2.2,4.8c-0.6,1.5-1.1,2.9-1.6,4.5
			c-0.5,1.6-1,3.1-1.5,4.7c-0.7,2.6-1.4,5.2-2.8,7.5c-0.8,1.4-1.8,2.6-2.7,4c3-1.4,5.4-4.1,7.5-6.7c1.7-2.2,3.3-4.4,4.9-6.6
			c0.5-0.7,1.1-1.5,1.6-2.2c0.2-0.2,0.9-0.1,1.1-0.1c0.7,0,1.4-0.1,2.2-0.3c2.6-0.6,4.9-2,6.9-3.7c2.1-1.7,3.5-3.6,4.7-6
			c0.3-0.5,0.4-1.2,0.5-1.8c0.1-1-1.1-1.4-1.9-1.4c-1.3,0.1-2.5,0.7-3.5,1.3c-2.1,1.3-4,2.7-5.6,4.6c-1.7,1.9-3.1,3.8-4.5,5.9
			c-0.1,0.1-0.2,0.3-0.3,0.3c-0.1,0.1-0.9,0-0.6,0.4c0.3,0.3,0.1,0.4-0.1,0.7c-0.6,1-1.2,1.9-1.9,2.9c-0.9,1.4-1.9,2.8-2.9,4.2
			c-0.8,1.1-1.6,2-2.5,3c1.1-2,2.2-3.9,3.1-6c0.8-1.7,1.3-3.4,1.9-5.1c1.1-3.4,1.7-7,3.2-10.2c0.8-1.7,1.6-3.2,2.5-4.8
			c-3.7,2-6.4,5.5-8.5,9.1c-2.2,3.9-4.3,7.8-6.5,11.7c-1,1.8-2.3,3.3-3.7,4.8c2.1-3.3,4.5-6.8,5.4-10.7c0.2-1.2,0.4-2.3,0.5-3.5
			c0.1-1.4,0-2.6-0.3-3.9c-0.1-0.3-0.2-0.5,0-0.7c0.3-0.4,0.6-0.8,0.8-1.3c0.2-0.5-0.4,0-0.5,0.1c-0.3,0.3-0.5,0.6-0.7,0.9
			c-0.5-1.2-1.2-2.6-2.3-3.3c-1.3-0.9-2.8-1.1-4.4-1.3c-2.3-0.2-4.7,0.3-6.8,1c-2.3,0.7-4.3,1.8-6.3,3.1c-2.2,1.5-4.8,4-2.8,6.7
			c0.4,0.5,1,0.8,1.6,1c0.4,0.2,0.5,0.1,0.7-0.1l-0.1,0.2c-1.4,2.4-2.7,4.9-4.3,7.1c-1.5,2.1-3.3,3.7-5.2,5.6c-0.8,0.8-2,1.9-3,2.4
			c-0.9,0.4-0.3-1.2-0.2-1.5c0.2-0.3,0.4-0.7,0.6-1c1-1.7,2-3.3,3-5c1.1-1.9,2.2-3.8,3.4-5.7l-2.8,0c-0.2,0-0.7-0.1-0.8,0.1
			c-0.3,0.4-0.5,0.7-0.8,1.1c-2.9-3.7-7.2,0.9-9.3,3.2c-0.7,0.8-2.1,2-3.2,1.7c-1.5-0.3,0.5-1.9,0.8-2.3c0.7-0.7,1.3-1.4,1.8-2.3
			c0.2-0.4,0.4-1.5-0.4-1.4c-0.8,0-1.5,0.7-1.9,1.3c-0.8,1-1,2.3-1.7,3.3c-0.3,0.4-0.8,0.8-1.2,1.1c-0.3,0.2-1,0.7-0.8-0.1
			c0.2-0.7,0.6-1.4,0.7-2.2c0.1-0.8,0.1-1.6-0.1-2.4c-0.6-1.8-2.7-0.5-3.5,0.3c-1.3,1.2-2.4,2.7-3.5,4c-1,1.2-1.9,2.4-2.9,3.6
			c-1,1.3-2.1,2.8-3.4,3.6c-0.1,0.1-1,0.7-1,0.3c0-0.5,0.4-1,0.6-1.4c0.4-0.8,1-1.5,1.4-2.3c1-1.8,2-3.5,3-5.3
			c0.9-1.5,1.8-3,2.8-4.5c0.2-0.3,0.4-0.6,0.5-0.9c0.1-0.2,0.3-0.1,0.5-0.1c1,0,2.1,0,3.1,0c0.2,0,0.3-0.7,0.4-0.9
			c-1.2,0-2.3,0-3.5,0c0.7-1.4,1.5-2.8,2.2-4.2c0.1-0.2,1.1-0.7,0.3-0.7c-0.4,0-0.9,0-1.3,0c-0.6,0-1.1,0-1.7,0c-0.2,0-0.4,0-0.6,0
			c-0.3,0,0,0.3,0,0.4c0.1,0.4-1,1.7-1.2,2.1c-0.5,0.7-0.9,1.5-1.4,2.2c0,0.1-0.6,0-0.7,0c-0.6,0-1.2,0-1.8,0c-0.4,0-0.8,0-1.2,0
			c-0.1,0-0.4,0.7-0.5,0.9c1.2,0,2.3,0,3.5,0c-2,3.2-4.1,6.3-6.6,9.1c-1.3,1.5-2.7,3.2-4.3,4.2c-0.5,0.3-1,0.7-1.5,0.9
			c-0.6,0.2,0.1-1.1,0.2-1.3c0.5-0.9,1-1.8,1.6-2.7c1.2-2,2.9-4,3-6.5c0-0.7-0.2-1.6-1-1.9c-0.7-0.2-1.4,0.2-2,0.6
			c-0.9,0.6-1.5,1.5-2.2,2.2c-0.6,0.6-1.2,1.3-1.8,1.9c-0.4,0.4-0.7,0.9-1.1,1.3c-0.2,0.2-0.7,0.9-1,1c-0.2,0,0.4-1.1,0.4-1.2
			c0.2-0.5,0.5-0.9,0.7-1.4c0.5-1.2,1.3-2.9,0.5-4.1c-1.5-2.1-4.6,1.8-5.5,2.9c-1.3,1.5-2.6,3-3.9,4.5c-1.3,1.5-2.6,3.3-4.3,4.4
			c-0.5,0.3-1.3,0.8-1.9,0.7c-0.8-0.2-0.4-1.1-0.2-1.6c0.5-1,1.1-1.9,1.7-2.9c1.4-2.3,2.6-4.7,4.1-6.9c0.2-0.3,0.5-0.7,0.8-1
			c0.3-0.3,1.1-0.6,1,0.1c-0.1,0.8-0.6,1.7-1,2.5c-0.4,0.7-0.9,1.4-1.4,2c-0.2,0.2-1.9,1.6-1.8,1.8c0.1,0.3,2.6-1.3,2.9-1.5
			c0.9-0.8,1.6-1.5,2.3-2.5c1-1.4,0.3-3.3-1.5-3.2c-1.2,0.1-2.3,0.6-3.2,1.3c-3.1,2.3-5.4,5.6-7.9,8.5c-1.6,1.8-3.2,3.6-4.7,5.5
			c1.5-1.3,2.8-2.6,4-4c0.6-0.8,1.4-1.6,2-2.4c0.2-0.3,1.5-2.2,1.9-1.8c0.1,0.1-0.5,1.2-0.6,1.3c-0.2,0.5-0.4,1-0.5,1.5
			c-0.3,1.5-0.1,3.8,2,3.9c2.3,0.1,4.2-2.6,5.7-4.1c2.4-2.5,4.6-5.3,7-7.8c0.2-0.2,0.4-0.4,0.6-0.6c0.2-0.1,1.2-0.8,1.1-0.1
			c-0.1,0.7-0.7,1.5-1.1,2.1c-0.6,1.2-1.4,2.4-2.1,3.6c-1.4,2.3-2.8,4.6-4.1,6.9c1,0,1.9,0,2.9,0c0.7,0,1-0.8,1.4-1.4
			c1-1.4,1.9-2.7,3-4c1.1-1.3,2.3-2.7,3.4-4c0.6-0.6,1.2-1.3,1.7-1.9c0.3-0.3,0.6-0.7,1-1c0.1-0.1,0.7-0.6,0.9-0.4
			c0.2,0.2-0.2,0.7-0.3,0.8c-0.8,1.4-1.7,2.8-2.5,4.2c-1.1,1.8-2.7,3.8-2.5,6c0.2,1.9,2.5,1.4,3.6,0.7c0.9-0.6,1.8-1.4,2.6-2.1
			c0.8-0.7,1.6-1.5,2.3-2.3c0.4-0.4,0.7-0.8,1-1.2c0.2-0.2,0.4-0.5,0.6-0.7c0,0,0.4-0.4,0.4-0.2c-0.1,0.6-0.4,1.1-0.6,1.6
			c-0.2,0.6-0.4,1.2-0.5,1.9c-0.3,1.2-0.7,3.9,1.3,3.8c1-0.1,1.8-0.9,2.4-1.6c0.6-0.6,1.2-1.1,1.7-1.8c1.3-1.6,2.6-3.2,3.9-4.8
			c0.5-0.7,1.1-1.4,1.7-2c0.8-0.9,1.6-2,2.7-2.5c0.9-0.4,0.2,0.9,0,1.2c-0.4,0.7-0.9,1.4-1.3,2.1c-0.7,1.1-1.2,2.1-1.8,3.2
			c-1.1,2-2.4,4-3.5,5.9c0.7,0,1.3,0,2,0.1c0.4,0,1.1,0.2,1.4-0.2c0.8-1.2,1.6-2.4,2.5-3.6c0.9-1.2,1.9-2.5,3.1-3.4
			c0.3-0.2,0.6-0.6,1-0.7c0.3-0.1,0.8,0.7,1.1,0.8c0.7,0.2,1.5-0.1,2.2-0.2c-0.8,1.7-1.7,3.6-1.5,5.6c0.1,0.6,0.4,1.3,1.1,1.5
			c0.9,0.3,1.6,0.1,2.3-0.4c1.3-0.9,2.3-2,3.4-3c0.5-0.5,0.5-0.2,0.5,0.4c-0.1,0.8-0.2,1.6,0.1,2.3c1.2,3,5.1-1.1,6.4-2.4
			c0.8-0.8,1.7-1.7,2.5-2.5c0.4-0.4,0.1,0.6,0,0.7c-0.3,0.9-0.7,1.7-0.7,2.6c0,1,0.3,2.1,1.3,2.5c0.8,0.4,1.6,0.1,2.3-0.2
			c1.6-0.8,3-2.1,4.3-3.3c0.4-0.5,0.9-0.9,1.3-1.4 M73.8,23.5c-1.1,1.5-2.5,2.8-3.9,4c-0.5,0.4-1,0.9-1.5,1.2
			c-1,0.5-1.1-0.5-0.8-1.2c0.4-0.9,1-1.7,1.5-2.5c1-1.7,2.1-3.4,3.1-5c0.7-1.2,1.7-3.3,3.2-3.5c1.7-0.3,1.9,1.8,1.2,2.9
			C75.7,20.7,74.7,22.1,73.8,23.5z M133.5,5.9c-0.7,1.1-1.4,2.1-2.2,3.1c-1.4,1.7-2.9,3.3-4.8,4.6c-2,1.4-3.9,2.7-6.4,2.1
			c0.3-0.5,0.6-1,1-1.5c2-2.7,4-5.5,6.7-7.6c1.3-1.1,3-2.3,4.6-2.7c0.5-0.1,1.8-0.4,1.8,0.4C134.2,4.8,133.8,5.4,133.5,5.9z"/>
	</g>
</g>
</svg>
